<?xml version="1.0" encoding="UTF-8" standalone="no"?>
<!-- Generated by IcoMoon.io -->

<svg
   version="1.1"
   width="71.998001"
   height="63.993999"
   viewBox="0 0 71.998001 63.993999"
   id="svg484"
   sodipodi:docname="users.svg"
   inkscape:version="1.2.1 (9c6d41e410, 2022-07-14)"
   xmlns:inkscape="http://www.inkscape.org/namespaces/inkscape"
   xmlns:sodipodi="http://sodipodi.sourceforge.net/DTD/sodipodi-0.dtd"
   xmlns="http://www.w3.org/2000/svg"
   xmlns:svg="http://www.w3.org/2000/svg">
  <defs
     id="defs488" />
  <sodipodi:namedview
     id="namedview486"
     pagecolor="#505050"
     bordercolor="#eeeeee"
     borderopacity="1"
     inkscape:showpageshadow="0"
     inkscape:pageopacity="0"
     inkscape:pagecheckerboard="0"
     inkscape:deskcolor="#505050"
     showgrid="false"
     inkscape:zoom="1.4804688"
     inkscape:cx="36.137203"
     inkscape:cy="31.746702"
     inkscape:window-width="1920"
     inkscape:window-height="991"
     inkscape:window-x="-9"
     inkscape:window-y="-9"
     inkscape:window-maximized="1"
     inkscape:current-layer="svg484" />
  <title
     id="title477" />
  <g
     id="icomoon-ignore"
     transform="translate(-252.001,-224.003)" />
  <path
     d="m 47.999,48.159 v -3.298 c 4.406,-2.483 8,-8.673 8,-14.863 0,-9.94 0,-17.999 -12,-17.999 -12,0 -12,8.058 -12,17.999 0,6.191 3.593,12.38 8,14.863 v 3.298 C 26.431,49.269 16.001,55.935 16.001,63.994 H 71.998 C 71.998,55.934 61.568,49.268 48,48.159 Z"
     id="path480" />
  <path
     d="m 20.45,49.704 c 3.456,-2.26 7.755,-3.977 12.486,-5.025 -0.94,-1.111 -1.795,-2.351 -2.531,-3.688 -1.901,-3.452 -2.906,-7.253 -2.906,-10.993 0,-5.377 0,-10.456 1.913,-14.609 1.856,-4.031 5.195,-6.531 9.95,-7.468 C 38.304,3.141 35.491,0 27.999,0 c -12,0 -12,8.058 -12,17.999 0,6.191 3.593,12.381 8,14.863 V 36.16 C 10.431,37.27 0,43.936 0,51.995 h 17.437 c 0.908,-0.807 1.913,-1.574 3.011,-2.292 z"
     id="path482" />
</svg>
